<?xml version="1.0" encoding="utf-8"?><svg xmlns="http://www.w3.org/2000/svg" xmlns:xlink="http://www.w3.org/1999/xlink"><symbol viewBox="0 0 30 30" id="close" xmlns="http://www.w3.org/2000/svg"><g clip-path="url(#aclip0)"><path d="M22.071 20.657L16.414 15l5.657-5.657a1 1 0 00-1.414-1.414L15 13.586 9.343 7.929A1 1 0 007.93 9.343L13.586 15l-5.657 5.657a1 1 0 001.414 1.414L15 16.414l5.657 5.657a1 1 0 001.414-1.414z"/></g><defs><clipPath id="aclip0"><path transform="rotate(45 6.464 18.536)" d="M0 0h20v20H0z"/></clipPath></defs></symbol><symbol viewBox="-110 1 511 512" id="facebook" xmlns="http://www.w3.org/2000/svg"><path d="M180 512H98.008c-13.695 0-24.836-11.14-24.836-24.836V302.227H25.336C11.64 302.227.5 291.082.5 277.39v-79.246c0-13.696 11.14-24.836 24.836-24.836h47.836v-39.684c0-39.348 12.355-72.824 35.726-96.805C132.375 12.73 165.184 0 203.778 0l62.53.102c13.672.023 24.794 11.164 24.794 24.835v73.579c0 13.695-11.137 24.836-24.829 24.836l-42.101.015c-12.84 0-16.11 2.574-16.809 3.363-1.152 1.31-2.523 5.008-2.523 15.223v31.352h58.27c4.386 0 8.636 1.082 12.288 3.12 7.88 4.403 12.778 12.727 12.778 21.723l-.031 79.247c0 13.687-11.141 24.828-24.836 24.828h-58.47v184.941C204.84 500.86 193.696 512 180 512zm-76.813-30.016h71.633V288.79c0-9.144 7.442-16.582 16.582-16.582h66.727l.027-68.883h-66.758c-9.14 0-16.578-7.437-16.578-16.582v-44.789c0-11.726 1.192-25.062 10.043-35.086 10.696-12.117 27.551-13.515 39.301-13.515l36.922-.016V30.109l-57.332-.093c-62.024 0-100.566 39.703-100.566 103.609v53.117c0 9.14-7.438 16.582-16.579 16.582H30.516v68.883h56.093c9.141 0 16.579 7.438 16.579 16.582zM266.25 30.117h.004zm0 0"/></symbol><symbol viewBox="0 0 512 512" id="instagram" xmlns="http://www.w3.org/2000/svg"><path d="M363.273 0H148.728C66.719 0 0 66.719 0 148.728v214.544C0 445.281 66.719 512 148.728 512h214.544C445.281 512 512 445.281 512 363.273V148.728C512 66.719 445.281 0 363.273 0zM472 363.272C472 423.225 423.225 472 363.273 472H148.728C88.775 472 40 423.225 40 363.273V148.728C40 88.775 88.775 40 148.728 40h214.544C423.225 40 472 88.775 472 148.728v214.544z"/><path d="M256 118c-76.094 0-138 61.906-138 138s61.906 138 138 138 138-61.906 138-138-61.906-138-138-138zm0 236c-54.037 0-98-43.963-98-98s43.963-98 98-98 98 43.963 98 98-43.963 98-98 98z"/><circle cx="396" cy="116" r="20"/></symbol><symbol viewBox="0 0 512 512" id="left-arrow" xmlns="http://www.w3.org/2000/svg"><path d="M492 236H68.442l70.164-69.824c7.829-7.792 7.859-20.455.067-28.284-7.792-7.83-20.456-7.859-28.285-.068l-104.504 104-.018.019c-7.809 7.792-7.834 20.496-.002 28.314l.018.019 104.504 104c7.828 7.79 20.492 7.763 28.285-.068 7.792-7.829 7.762-20.492-.067-28.284L68.442 276H492c11.046 0 20-8.954 20-20s-8.954-20-20-20z"/></symbol><symbol viewBox="0 0 512 512" id="location" xmlns="http://www.w3.org/2000/svg"><path d="M256 0C148.477 0 61 87.477 61 195c0 69.412 21.115 97.248 122.581 231.01C201.194 449.229 221.158 475.546 244 506a15.001 15.001 0 0024.001-.002c22.708-30.29 42.585-56.507 60.123-79.638C429.834 292.209 451 264.292 451 195 451 87.477 363.523 0 256 0zm48.219 408.235c-14.404 18.998-30.383 40.074-48.222 63.789-17.961-23.867-34.031-45.052-48.515-64.146C108.784 277.766 91 254.321 91 195c0-90.981 74.019-165 165-165s165 74.019 165 165c0 59.205-17.83 82.722-116.781 213.235z"/><path d="M256 90c-57.897 0-105 47.103-105 105s47.103 105 105 105 105-47.103 105-105S313.897 90 256 90zm0 180c-41.355 0-75-33.645-75-75s33.645-75 75-75 75 33.645 75 75-33.645 75-75 75z"/></symbol><symbol viewBox="0 0 512 512" id="mail" xmlns="http://www.w3.org/2000/svg"><path d="M464 64H48C21.49 64 0 85.49 0 112v288c0 26.51 21.49 48 48 48h416c26.51 0 48-21.49 48-48V112c0-26.51-21.49-48-48-48zm-11.52 32L256 236.32 59.52 96h392.96zM480 400c0 8.837-7.163 16-16 16H48c-8.837 0-16-7.163-16-16V115.68l214.72 153.28a16 16 0 0018.56 0L480 115.68V400z"/></symbol><symbol viewBox="0 0 405.333 405.333" id="phone" xmlns="http://www.w3.org/2000/svg"><path d="M373.333 266.88c-25.003 0-49.493-3.904-72.725-11.584-11.328-3.904-24.171-.896-31.637 6.699l-46.016 34.752c-52.779-28.16-86.571-61.931-114.389-114.368l33.813-44.928c8.512-8.533 11.563-20.971 7.915-32.64C142.592 81.472 138.667 56.96 138.667 32c0-17.643-14.357-32-32-32H32C14.357 0 0 14.357 0 32c0 205.845 167.488 373.333 373.333 373.333 17.643 0 32-14.357 32-32V298.88c0-17.643-14.357-32-32-32zM384 373.333c0 5.888-4.8 10.667-10.667 10.667-194.091 0-352-157.909-352-352 0-5.888 4.8-10.667 10.667-10.667h74.667c5.867 0 10.667 4.779 10.667 10.667 0 27.243 4.267 53.995 12.629 79.36 1.237 3.989.235 8.107-3.669 12.16l-38.827 51.413a10.665 10.665 0 00-.981 11.264c31.637 62.144 70.059 100.587 132.651 132.651 3.605 1.877 8.021 1.493 11.285-.981l52.523-39.808a10.7 10.7 0 0110.859-2.539c25.515 8.427 52.267 12.693 79.531 12.693 5.867 0 10.667 4.779 10.667 10.667v74.453z"/></symbol><symbol viewBox="0 0 24 24" id="vk" xmlns="http://www.w3.org/2000/svg"><path d="M12.145 19.5c3.472 0 2.234-2.198 2.502-2.83-.004-.472-.008-.926.008-1.202.22.062.739.325 1.811 1.367 1.655 1.67 2.078 2.665 3.415 2.665h2.461c.78 0 1.186-.323 1.389-.594.196-.262.388-.722.178-1.438-.549-1.724-3.751-4.701-3.95-5.015a2.84 2.84 0 01.103-.175h-.002c.632-.835 3.044-4.449 3.399-5.895a.019.019 0 00.002-.008c.192-.66.016-1.088-.166-1.33-.274-.362-.71-.545-1.299-.545h-2.461c-.824 0-1.449.415-1.765 1.172-.529 1.345-2.015 4.111-3.129 5.09a64.114 64.114 0 01.007-3.233c.036-1.535.152-3.029-1.441-3.029H9.339c-.998 0-1.953 1.09-.919 2.384.904 1.134.325 1.766.52 4.912-.76-.815-2.112-3.016-3.068-5.829-.268-.761-.674-1.466-1.817-1.466H1.594C.596 4.501 0 5.045 0 5.956 0 8.002 4.529 19.5 12.145 19.5zM4.055 6.001c.217 0 .239 0 .4.457.979 2.883 3.175 7.149 4.779 7.149 1.205 0 1.205-1.235 1.205-1.7l-.001-3.702C10.372 6.98 9.926 6.37 9.633 6l3.508.004c.002.017-.02 4.095.01 5.083 0 1.403 1.114 2.207 2.853.447 1.835-2.071 3.104-5.167 3.155-5.293.075-.18.14-.241.376-.241h2.471l-.002.009c-.225 1.05-2.446 4.396-3.189 5.435l-.034.05c-.327.534-.593 1.124.045 1.954h.001c.058.07.209.234.429.462.684.706 3.03 3.12 3.238 4.08-.138.022-.288.006-2.613.011-.495 0-.882-.74-2.359-2.23-1.328-1.292-2.19-1.82-2.975-1.82-1.524 0-1.413 1.237-1.399 2.733.005 1.622-.005 1.109.006 1.211-.089.035-.344.105-1.009.105C5.8 18 1.668 7.929 1.509 6.004c.055-.005.812-.002 2.546-.003z"/></symbol><symbol viewBox="0 -61 512 512" id="youtube" xmlns="http://www.w3.org/2000/svg"><path d="M75 390h362c41.355 0 75-33.645 75-75V75c0-41.355-33.645-75-75-75H75C33.645 0 0 33.645 0 75v240c0 41.355 33.645 75 75 75zM30 75c0-24.813 20.188-45 45-45h362c24.813 0 45 20.188 45 45v240c0 24.813-20.188 45-45 45H75c-24.813 0-45-20.188-45-45zm0 0"/><path d="M181 94.508v203.898l180.5-103.62zm30 50.984l89.5 49.723-89.5 51.379zm0 0"/></symbol></svg>