<svg width="30" height="30" viewBox="0 0 30 30" fill="none" xmlns="http://www.w3.org/2000/svg">
<g clip-path="url(#clip0)">
<path d="M22.071 20.6569L16.4143 15.0001L22.0712 9.34319C22.4614 8.95295 22.4614 8.3193 22.071 7.92893C21.6808 7.5387 21.0471 7.5387 20.6569 7.92893L15 13.5858L9.3431 7.92893C8.95286 7.5387 8.31921 7.5387 7.92898 7.92893C7.53861 8.3193 7.53861 8.95295 7.92885 9.34319L13.5857 15.0001L7.92898 20.6569C7.53861 21.0472 7.53861 21.6809 7.92885 22.0711C8.31921 22.4615 8.95286 22.4615 9.34323 22.0711L15 16.4143L20.6568 22.0711C21.0471 22.4615 21.6808 22.4615 22.0712 22.0711C22.4614 21.6809 22.4614 21.0472 22.071 20.6569Z" fill="#C8C8C8"/>
</g>
<defs>
<clipPath id="clip0">
<rect width="20" height="20" fill="white" transform="translate(15 0.85791) rotate(45)"/>
</clipPath>
</defs>
</svg>
