<svg width="88" height="89" viewBox="0 0 88 89" fill="none" xmlns="http://www.w3.org/2000/svg">
<g clip-path="url(#clip0)">
<path d="M86.0147 36.8482L81.482 35.7786C80.5199 31.5942 78.8908 27.6563 76.6236 24.0344L78.8535 20.3178C79.4623 19.3034 79.3023 18.0049 78.4658 17.1684L71.1742 9.87656C70.3377 9.04005 69.0393 8.88037 68.0247 9.48881L64.3079 11.7189C60.6864 9.45169 56.7487 7.82283 52.5639 6.8605L51.4943 2.32781C51.2197 1.16405 50.1808 0.341797 48.9851 0.341797H38.6726C37.4769 0.341797 36.4381 1.16405 36.1634 2.32781L35.0938 6.8605C30.909 7.82283 26.9715 9.45169 23.35 11.7189L19.6332 9.48881C18.6187 8.8802 17.3204 9.04005 16.4837 9.87656L9.19175 17.1684C8.35523 18.0049 8.19539 19.3034 8.804 20.3178L11.0339 24.0344C8.7624 27.663 7.13165 31.609 6.17001 35.8022L1.9534 36.8563C0.805967 37.1432 0.000732422 38.1744 0.000732422 39.3574V49.6699C0.000732422 50.8529 0.805967 51.8842 1.95358 52.171L6.17019 53.2253C7.13165 57.4191 8.7624 61.3641 11.0339 64.9928L8.804 68.7094C8.19522 69.7238 8.35523 71.0223 9.19158 71.8588L16.4835 79.1508C17.3202 79.9875 18.6186 80.1471 19.633 79.5385L23.3496 77.3086C26.9784 79.5801 30.9236 81.2109 35.1172 82.1723L36.1713 86.389C36.4583 87.5366 37.4896 88.3418 38.6726 88.3418H48.9851C50.1681 88.3418 51.1994 87.5366 51.4862 86.389L52.5403 82.1723C56.7339 81.2109 60.6791 79.5801 64.3079 77.3086L68.0246 79.5385C69.0391 80.1473 70.3377 79.9873 71.174 79.1508L78.4658 71.8586C79.3023 71.0221 79.4622 69.7236 78.8534 68.7092L76.6235 64.9926C78.8907 61.371 80.5195 57.4333 81.4819 53.2487L86.0145 52.1791C87.1785 51.9045 88.0007 50.8657 88.0007 49.6699V39.3574C88.0007 38.1617 87.1785 37.1229 86.0147 36.8482ZM82.8445 47.6294L78.6997 48.6076C77.7049 48.8422 76.9428 49.6424 76.7568 50.6474C75.8971 55.292 74.1136 59.6064 71.4562 63.4708C70.884 64.3028 70.8504 65.3922 71.3699 66.2581L73.3967 69.6359L68.9515 74.0813L65.5736 72.0546C64.7077 71.5352 63.6185 71.5689 62.7865 72.1409C58.9219 74.7982 54.6073 76.5818 49.9627 77.4415C48.97 77.6252 48.1757 78.3717 47.9308 79.3512L46.9723 83.1855H40.6856L39.7271 79.3514C39.4821 78.3718 38.6881 77.6254 37.6952 77.4417C33.0507 76.5819 28.736 74.7984 24.8714 72.141C24.0393 71.569 22.95 71.5352 22.0843 72.0547L18.7064 74.0815L14.2612 69.6361L16.288 66.2583C16.8074 65.3924 16.7737 64.303 16.2017 63.471C13.5443 59.6067 11.7608 55.2921 10.901 50.6475C10.7173 49.6548 9.97086 48.8606 8.99134 48.6156L5.15698 47.6569V41.3703L8.99117 40.4117C9.97069 40.1668 10.7171 39.3727 10.9009 38.3798C11.7606 33.7354 13.544 29.4208 16.2015 25.556C16.7737 24.724 16.8074 23.6346 16.2878 22.7687L14.2612 19.391L18.7062 14.9458L22.0846 16.9728C22.9507 17.4923 24.04 17.4585 24.8719 16.8863C28.7362 14.229 33.0506 12.4456 37.6952 11.5857C38.7001 11.3997 39.5004 10.6375 39.7351 9.64281L40.7131 5.49805H46.9446L47.9226 9.64281C48.1574 10.6376 48.9574 11.3997 49.9626 11.5857C54.6071 12.4456 58.9215 14.229 62.786 16.8863C63.618 17.4585 64.7072 17.4922 65.5733 16.9728L68.9515 14.9458L73.3965 19.391L71.3698 22.7691C70.8504 23.635 70.884 24.7243 71.456 25.5564C74.1136 29.4212 75.8969 33.7357 76.7567 38.3801C76.9428 39.3851 77.7049 40.1853 78.6995 40.4201L82.8445 41.3979V47.6294Z" fill="#C8C8C8"/>
<mask id="mask0" mask-type="alpha" maskUnits="userSpaceOnUse" x="15" y="16" width="58" height="57">
<path d="M43.8289 16.1543C28.1915 16.1543 15.4695 28.8763 15.4695 44.5137C15.4695 60.1584 28.1992 72.873 43.8289 72.873C59.4672 72.873 72.1882 60.1497 72.1882 44.5137C72.1882 28.8763 59.4662 16.1543 43.8289 16.1543ZM46.407 59.1022V67.5728C45.5602 67.6668 44.7003 67.7168 43.8289 67.7168C42.9575 67.7168 42.0976 67.6668 41.2507 67.5728V59.1022C41.2507 58.0096 40.562 57.0356 39.5318 56.6714C34.3917 54.8547 30.9382 49.9688 30.9382 44.5137C30.9382 40.3904 32.9114 36.5921 36.0945 34.1989V44.5137C36.0945 45.9375 37.2488 47.0918 38.6726 47.0918H48.9851C50.4089 47.0918 51.5632 45.9375 51.5632 44.5137V34.1989C54.7464 36.5923 56.7195 40.3904 56.7195 44.5137C56.7195 49.9688 53.266 54.8547 48.1259 56.6714C47.0957 57.0356 46.407 58.0095 46.407 59.1022ZM51.5632 66.3896V60.8236C57.7999 57.8637 61.8757 51.5243 61.8757 44.5135C61.8757 36.8773 57.0407 30.0378 49.8443 27.4943C48.1675 26.9016 46.407 28.1486 46.407 29.9251V41.9355H41.2507V29.9251C41.2507 28.1467 39.4883 26.9022 37.8134 27.4943C30.617 30.038 25.782 36.8774 25.782 44.5137C25.782 51.5245 29.8578 57.8639 36.0945 60.8237V66.3897C27.0917 63.1973 20.6257 54.5971 20.6257 44.5138C20.6257 31.7196 31.0347 21.3107 43.8289 21.3107C56.6231 21.3107 67.032 31.7196 67.032 44.5138C67.032 54.5971 60.566 63.1972 51.5632 66.3896Z" fill="black"/>
</mask>
<g mask="url(#mask0)">
<circle cx="43.5007" cy="44.8418" r="23.5" fill="#E3000B"/>
</g>
<path d="M43.8289 16.1543C28.1915 16.1543 15.4695 28.8763 15.4695 44.5137C15.4695 60.1584 28.1992 72.873 43.8289 72.873C59.4672 72.873 72.1882 60.1497 72.1882 44.5137C72.1882 28.8763 59.4662 16.1543 43.8289 16.1543ZM51.5632 66.3896C51.5632 66.3896 42.5007 68.6614 36.0945 66.3897C27.0917 63.1973 20.6257 54.5971 20.6257 44.5138C20.6257 31.7196 31.0347 21.3107 43.8289 21.3107C56.6231 21.3107 67.032 31.7196 67.032 44.5138C67.032 54.5971 60.566 63.1972 51.5632 66.3896Z" fill="black"/>
</g>
<defs>
<clipPath id="clip0">
<rect width="88" height="88" fill="white" transform="translate(0.000732422 0.341797)"/>
</clipPath>
</defs>
</svg>
