<svg width="88" height="89" viewBox="0 0 88 89" fill="none" xmlns="http://www.w3.org/2000/svg">
<g clip-path="url(#clip0)">
<path d="M80.6978 54.8262C81.9249 53.4563 82.6726 51.6482 82.6726 49.6699C82.6726 45.4057 79.2025 41.9355 74.9382 41.9355H59.9267C61.4134 37.4238 62.0476 31.4374 62.0476 28.8713V26.2949C62.0476 20.6093 57.4207 15.9824 51.7351 15.9824H49.157C47.9745 15.9824 46.9432 16.7868 46.6562 17.9349L45.252 23.5535C43.284 31.422 37.0364 40.1034 30.5704 41.6812C29.4378 38.8143 26.6414 36.7793 23.3757 36.7793H7.90698C6.48386 36.7793 5.32886 37.9343 5.32886 39.3574V85.7637C5.32886 87.1868 6.48386 88.3418 7.90698 88.3418H23.3757C26.4506 88.3418 29.1112 86.5388 30.3573 83.9332L39.2157 86.886C42.1118 87.852 45.13 88.3418 48.1842 88.3418H69.782C74.0462 88.3418 77.5164 84.8716 77.5164 80.6074C77.5164 79.602 77.3239 78.6395 76.9732 77.7577C80.2526 76.8623 82.6726 73.8562 82.6726 70.2949C82.6726 68.3166 81.9249 66.5085 80.6978 65.1387C81.9249 63.7688 82.6726 61.9607 82.6726 59.9824C82.6726 58.0041 81.9249 56.196 80.6978 54.8262ZM25.9539 80.6074C25.9539 82.0288 24.7971 83.1855 23.3757 83.1855H10.4851V41.9355H23.3757C24.7971 41.9355 25.9539 43.0923 25.9539 44.5137V80.6074ZM69.782 57.4043H74.9382C76.3596 57.4043 77.5164 58.561 77.5164 59.9824C77.5164 61.4038 76.3596 62.5605 74.9382 62.5605H69.782C68.3589 62.5605 67.2039 63.7155 67.2039 65.1387C67.2039 66.5618 68.3589 67.7168 69.782 67.7168H74.9382C76.3596 67.7168 77.5164 68.8735 77.5164 70.2949C77.5164 71.7163 76.3596 72.873 74.9382 72.873H69.782C68.3589 72.873 67.2039 74.028 67.2039 75.4512C67.2039 76.8743 68.3589 78.0293 69.782 78.0293C71.2034 78.0293 72.3601 79.186 72.3601 80.6074C72.3601 82.0288 71.2034 83.1855 69.782 83.1855H48.1842C45.6851 83.1855 43.2153 82.7851 40.8451 81.9945L31.1101 78.7495V46.8477C35.1543 46.0795 39.1126 43.5185 42.6859 39.3265C46.175 35.2324 49.004 29.8046 50.2535 24.8048L51.1696 21.1387H51.7351C54.5779 21.1387 56.8914 23.4521 56.8914 26.2949V28.8713C56.8914 32.3329 55.8085 38.9724 54.4232 41.9355H49.157C47.7339 41.9355 46.5789 43.0905 46.5789 44.5137C46.5789 45.9368 47.7339 47.0918 49.157 47.0918H74.9382C76.3596 47.0918 77.5164 48.2485 77.5164 49.6699C77.5164 51.0913 76.3596 52.248 74.9382 52.248H69.782C68.3589 52.248 67.2039 53.403 67.2039 54.8262C67.2039 56.2493 68.3589 57.4043 69.782 57.4043Z" fill="black"/>
<mask id="mask0" mask-type="alpha" maskUnits="userSpaceOnUse" x="5" y="15" width="78" height="74">
<path d="M80.6978 54.8262C81.9249 53.4563 82.6726 51.6482 82.6726 49.6699C82.6726 45.4057 79.2025 41.9355 74.9382 41.9355H59.9267C61.4134 37.4238 62.0476 31.4374 62.0476 28.8713V26.2949C62.0476 20.6093 57.4207 15.9824 51.7351 15.9824H49.157C47.9745 15.9824 46.9432 16.7868 46.6562 17.9349L45.252 23.5535C43.284 31.422 37.0364 40.1034 30.5704 41.6812C29.4378 38.8143 26.6414 36.7793 23.3757 36.7793H7.90698C6.48386 36.7793 5.32886 37.9343 5.32886 39.3574V85.7637C5.32886 87.1868 6.48386 88.3418 7.90698 88.3418H23.3757C26.4506 88.3418 29.1112 86.5388 30.3573 83.9332L39.2157 86.886C42.1118 87.852 45.13 88.3418 48.1842 88.3418H69.782C74.0462 88.3418 77.5164 84.8716 77.5164 80.6074C77.5164 79.602 77.3239 78.6395 76.9732 77.7577C80.2526 76.8623 82.6726 73.8562 82.6726 70.2949C82.6726 68.3166 81.9249 66.5085 80.6978 65.1387C81.9249 63.7688 82.6726 61.9607 82.6726 59.9824C82.6726 58.0041 81.9249 56.196 80.6978 54.8262ZM25.9539 80.6074C25.9539 82.0288 24.7971 83.1855 23.3757 83.1855H10.4851V41.9355H23.3757C24.7971 41.9355 25.9539 43.0923 25.9539 44.5137V80.6074ZM69.782 57.4043H74.9382C76.3596 57.4043 77.5164 58.561 77.5164 59.9824C77.5164 61.4038 76.3596 62.5605 74.9382 62.5605H69.782C68.3589 62.5605 67.2039 63.7155 67.2039 65.1387C67.2039 66.5618 68.3589 67.7168 69.782 67.7168H74.9382C76.3596 67.7168 77.5164 68.8735 77.5164 70.2949C77.5164 71.7163 76.3596 72.873 74.9382 72.873H69.782C68.3589 72.873 67.2039 74.028 67.2039 75.4512C67.2039 76.8743 68.3589 78.0293 69.782 78.0293C71.2034 78.0293 72.3601 79.186 72.3601 80.6074C72.3601 82.0288 71.2034 83.1855 69.782 83.1855H48.1842C45.6851 83.1855 43.2153 82.7851 40.8451 81.9945L31.1101 78.7495V46.8477C35.1543 46.0795 39.1126 43.5185 42.6859 39.3265C46.175 35.2324 49.004 29.8046 50.2535 24.8048L51.1696 21.1387H51.7351C54.5779 21.1387 56.8914 23.4521 56.8914 26.2949V28.8713C56.8914 32.3329 55.8085 38.9724 54.4232 41.9355H49.157C47.7339 41.9355 46.5789 43.0905 46.5789 44.5137C46.5789 45.9368 47.7339 47.0918 49.157 47.0918H74.9382C76.3596 47.0918 77.5164 48.2485 77.5164 49.6699C77.5164 51.0913 76.3596 52.248 74.9382 52.248H69.782C68.3589 52.248 67.2039 53.403 67.2039 54.8262C67.2039 56.2493 68.3589 57.4043 69.782 57.4043Z" fill="black"/>
</mask>
<g mask="url(#mask0)">
<path d="M2.00073 36.3418H30.575V41.6738L31.114 46.8418V78.7296L30.3601 83.9238V88.3418H2.00073V36.3418Z" fill="#C8C8C8"/>
</g>
<path d="M18.2195 78.0293C19.6433 78.0293 20.7976 76.875 20.7976 75.4512C20.7976 74.0273 19.6433 72.873 18.2195 72.873C16.7956 72.873 15.6414 74.0273 15.6414 75.4512C15.6414 76.875 16.7956 78.0293 18.2195 78.0293Z" fill="#E3000B"/>
<path d="M54.3132 0.341797C52.8894 0.341797 51.7351 1.49611 51.7351 2.91992V8.24805C51.7351 9.67186 52.8894 10.8262 54.3132 10.8262C55.737 10.8262 56.8914 9.67186 56.8914 8.24805V2.91992C56.8914 1.49611 55.737 0.341797 54.3132 0.341797Z" fill="#E3000B"/>
<path d="M43.3752 11.7112L39.7292 8.06519C38.7226 7.05835 37.0901 7.05835 36.0833 8.06519C35.0764 9.07204 35.0764 10.7043 36.0833 11.7112L39.7292 15.3572C40.7359 16.3638 42.3686 16.364 43.3752 15.3572C44.3821 14.3503 44.3821 12.718 43.3752 11.7112Z" fill="#E3000B"/>
<path d="M72.5435 8.06519C71.5368 7.05835 69.9043 7.05835 68.8975 8.06519L65.2515 11.711C64.2446 12.7178 64.2446 14.3501 65.2515 15.357C66.2581 16.3638 67.8906 16.364 68.8975 15.3572L72.5435 11.7112C73.5503 10.7043 73.5503 9.07204 72.5435 8.06519Z" fill="#E3000B"/>
</g>
<defs>
<clipPath id="clip0">
<rect width="88" height="88" fill="white" transform="translate(0.000732422 0.341797)"/>
</clipPath>
</defs>
</svg>
