<svg width="73" height="92" viewBox="0 0 73 92" fill="none" xmlns="http://www.w3.org/2000/svg">
<path d="M25.944 43.7952C24.903 42.7541 23.2149 42.7541 22.1737 43.7952C21.1325 44.8364 21.1325 46.5243 22.1737 47.5655L30.468 55.8598C30.9886 56.3804 31.6709 56.6408 32.3531 56.6408C33.0352 56.6408 33.7177 56.3806 34.2381 55.8598L50.8266 39.2714C51.8678 38.2302 51.8678 36.5423 50.8266 35.5011C49.7856 34.4599 48.0975 34.4599 47.0563 35.5011L32.3529 50.2043L25.944 43.7952Z" fill="#E3000B"/>
<path d="M70.2538 12.7832C62.5694 12.7832 55.5685 8.56095 51.9834 1.76403C51.5222 0.889219 50.6143 0.341797 49.6254 0.341797H23.3751C22.3862 0.341797 21.4783 0.889219 21.0169 1.76403C17.432 8.56095 10.4311 12.7832 2.73071 12.7832C1.25836 12.7832 0.0646973 13.9769 0.0646973 15.4492V42.5983C0.0646973 53.5126 3.47489 63.9346 9.92647 72.7378C16.3784 81.541 25.2896 87.9313 35.6974 91.2179C35.9587 91.3004 36.2294 91.3416 36.5002 91.3416C36.7711 91.3416 37.0418 91.3004 37.3031 91.2179C47.7108 87.9313 56.6221 81.541 63.074 72.7378C69.5256 63.9346 72.9358 53.5126 72.9358 42.5983V15.4492C72.9358 13.9769 71.7261 12.7832 70.2538 12.7832ZM67.6038 42.5983C67.6038 62.3293 55.14 79.6133 36.5002 85.872C17.8605 79.6133 5.39673 62.3293 5.39673 42.5983V17.9814C13.4655 17.1624 20.6815 12.6343 24.9258 5.67383H48.0748C52.3168 12.6307 59.5286 17.1578 67.6038 17.9802V42.5983Z" fill="#C8C8C8"/>
<path d="M46.0265 11.9848C45.5201 11.3652 44.762 11.0059 43.9619 11.0059H29.0384C28.2383 11.0059 27.4804 11.3652 26.9742 11.9848C23.2045 16.5972 18.2208 20.0186 12.5621 21.8788C11.4681 22.2383 10.7288 23.2598 10.7288 24.4115V42.5985C10.7288 58.9255 20.4418 73.5255 35.4742 79.7937C35.8026 79.9305 36.1515 79.999 36.5002 79.999C36.849 79.999 37.198 79.9305 37.5263 79.7937C52.5587 73.5255 62.2717 58.9255 62.2717 42.5985V24.4133C62.2717 23.2617 61.5325 22.2403 60.4386 21.8805C54.7797 20.0197 49.796 16.5979 46.0265 11.9848ZM56.9397 42.5985C56.9397 56.3914 48.9539 68.763 36.5002 74.4254C24.0466 68.7631 16.0608 56.3916 16.0608 42.5985V26.2871C21.5322 24.1607 26.3973 20.7571 30.2739 16.3379H42.7265C46.6032 20.7576 51.4678 24.1618 56.9397 26.2885V42.5985Z" fill="black"/>
</svg>
