<svg width="88" height="89" viewBox="0 0 88 89" fill="none" xmlns="http://www.w3.org/2000/svg">
<g clip-path="url(#clip0)">
<path d="M75.1126 13.2292C66.8021 4.91866 55.7526 0.341797 43.9998 0.341797C32.2469 0.341797 21.1974 4.91866 12.8869 13.2292C4.57644 21.5397 -0.000244141 32.589 -0.000244141 44.3418C-0.000244141 56.0946 4.57644 67.1441 12.8869 75.4544C21.1974 83.7648 32.2469 88.3418 43.9998 88.3418C55.7526 88.3418 66.8021 83.7649 75.1126 75.4544C83.4231 67.1439 87.9998 56.0946 87.9998 44.3418C87.9998 32.589 83.4231 21.5395 75.1126 13.2292ZM43.9998 83.1347C22.6094 83.1347 5.20688 65.7322 5.20688 44.3418C5.20688 22.9514 22.6094 5.54892 43.9998 5.54892C65.3901 5.54892 82.7926 22.9514 82.7926 44.3418C82.7926 65.7322 65.3901 83.1347 43.9998 83.1347Z" fill="#C8C8C8"/>
<path d="M43.9998 12.3418C43.9129 12.3418 43.8264 12.3444 43.7396 12.3451C43.7177 12.3444 43.6962 12.3418 43.6742 12.3418C43.6373 12.3418 43.6012 12.3455 43.5648 12.3472C26.1679 12.5805 12.0791 26.7642 12.0016 44.1977C12.0015 44.21 11.9998 44.2218 11.9998 44.2339C11.9998 44.2412 12.0008 44.2484 12.0008 44.2556C12.0008 44.2845 11.9998 44.3131 11.9998 44.3417C11.9998 61.9866 26.3547 76.3418 43.9997 76.3418C61.6446 76.3418 75.9998 61.9868 75.9998 44.3419C75.9998 26.697 61.6448 12.3418 43.9998 12.3418ZM46.3558 71.5273V68.5407C46.3558 67.2396 45.301 66.1848 43.9998 66.1848C42.6987 66.1848 41.6439 67.2396 41.6439 68.5407V71.5273C28.4369 70.3924 17.8882 59.8113 16.8048 46.5897H19.3672C20.6683 46.5897 21.7231 45.5349 21.7231 44.2338C21.7231 42.9326 20.6683 41.8779 19.3672 41.8779H16.8242C17.9942 28.8658 28.3357 18.4574 41.3184 17.1854V19.6014C41.3184 20.9025 42.3732 21.9573 43.6743 21.9573C44.9755 21.9573 46.0302 20.9025 46.0302 19.6014V17.1291C59.208 18.103 69.8129 28.4761 71.1465 41.5525H68.3068C67.0056 41.5525 65.9509 42.6073 65.9509 43.9084C65.9509 45.2096 67.0056 46.2644 68.3068 46.2644H71.2195C70.284 59.6372 59.671 70.3832 46.3558 71.5273Z" fill="black"/>
<path d="M54.5389 33.8023C53.5224 32.7854 51.874 32.7854 50.8573 33.8023L43.9999 40.6598L30.6996 27.3598C29.683 26.343 28.0345 26.343 27.0177 27.3598C26.0009 28.3766 26.0009 30.0249 27.0177 31.0417L42.1587 46.1827C42.647 46.671 43.3091 46.9453 43.9997 46.9453C44.6901 46.9453 45.3525 46.6708 45.8406 46.1827L54.5389 37.4842C55.5557 36.4676 55.5557 34.8192 54.5389 33.8023Z" fill="#E3000B"/>
</g>
<defs>
<clipPath id="clip0">
<rect width="88" height="88" fill="white" transform="translate(-0.000244141 0.341797)"/>
</clipPath>
</defs>
</svg>
