<svg width="201" height="49" viewBox="0 0 201 49" fill="none" xmlns="http://www.w3.org/2000/svg">
<path d="M13.8681 31.7921L17.6591 6.1689H25.5312V42.2347H20.2122V16.4182L16.3245 42.2347H10.9088L6.75029 16.8049V42.2541H1.79879V6.1689H9.6709L13.8681 31.7921ZM0 45.6576H148.313V48.5003H0V45.6576ZM0 0H148.313V2.84272H0V0ZM34.9313 33.9773C34.9313 35.3116 35.1247 36.1625 35.6856 36.7233C36.2465 37.2841 36.9235 37.4775 37.8712 37.4775C38.7223 37.4775 39.3992 37.2841 39.9602 36.7233C40.5211 36.1625 40.7145 35.2923 40.7145 33.9773V14.523C40.7145 13.1887 40.5211 12.2411 39.9602 11.777C39.3992 11.2162 38.7223 10.9261 37.8712 10.9261C36.9235 10.9261 36.2659 11.2162 35.6856 11.777C35.1247 12.2604 34.9313 13.208 34.9313 14.523V33.9773ZM29.2448 14.9098C29.2448 11.9704 29.9991 9.68846 31.4304 8.16074C32.9584 6.55566 35.0473 5.78213 37.8906 5.78213C40.6371 5.78213 42.726 6.53632 44.254 8.16074C45.666 9.68846 46.4203 11.9704 46.4203 14.9098V33.6099C46.4203 36.5493 45.666 38.7345 44.2347 40.3589C42.7067 41.8866 40.6178 42.7375 37.8712 42.7375C35.028 42.7375 32.9391 41.8866 31.4111 40.3589C29.9798 38.7538 29.2255 36.5686 29.2255 33.6099V14.9098H29.2448ZM55.1628 16.1281V42.2347H50.0372V6.1689H57.155L62.9382 27.8084V6.1689H68.0638V42.2347H62.1839L55.1628 16.1281ZM71.3906 14.9098C71.3906 11.9704 72.0482 9.68846 73.4795 8.16074C74.9108 6.55566 76.903 5.78213 79.7462 5.78213C82.4928 5.78213 84.5817 6.53632 86.013 8.16074C87.3476 9.68846 88.1019 11.951 88.1019 14.9098V16.2441H82.6862V14.523C82.6862 13.1887 82.4928 12.2411 81.9319 11.777C81.4483 11.2162 80.7907 10.9261 79.8429 10.9261C78.9919 10.9261 78.3149 11.2162 77.754 11.777C77.2705 12.2604 77.0964 13.208 77.0964 14.523C77.0964 15.7607 77.2898 16.8049 77.8507 17.7525C78.4117 18.7001 79.0886 19.6477 79.9397 20.4018C80.7907 21.2527 81.6417 22.1036 82.5895 22.9738C83.5372 23.8247 84.3883 24.7723 85.2393 25.7199C86.0904 26.7641 86.7673 27.9051 87.3282 29.1427C87.8118 30.3804 88.0826 31.8888 88.0826 33.6099C88.0826 36.5493 87.4249 38.7345 85.9936 40.3589C84.5623 41.8866 82.4734 42.7375 79.6302 42.7375C76.8837 42.7375 74.7947 41.8866 73.3634 40.3589C71.9322 38.7538 71.1778 36.5686 71.1778 33.6099V31.1346H76.5935V33.9773C76.5935 35.3116 76.7869 36.1625 77.3479 36.7233C77.9088 37.2068 78.5857 37.4775 79.5335 37.4775C80.3845 37.4775 81.1389 37.1874 81.6224 36.7233C82.1833 36.1625 82.4734 35.2923 82.4734 33.9773C82.4734 32.7396 82.1833 31.5987 81.6224 30.6511C81.0615 29.8002 80.3845 28.8527 79.5335 28.0018C78.6824 27.1509 77.8314 26.3967 76.8837 25.5265C75.9359 24.6756 75.0849 23.728 74.2338 22.7804C73.4795 21.7362 72.7058 20.5952 72.2416 19.3576C71.6807 18.0426 71.3906 16.6115 71.3906 14.9098ZM89.8233 6.1689H107.386V11.3902H101.409V42.2347H95.7999V11.3902H89.8233V6.1689ZM115.645 21.3494H123.439V26.5707H115.645V37.1101H125.432V42.2347H109.958V6.1689H125.432V11.3902H115.645V21.3494ZM140.712 42.2347C140.712 42.0413 140.615 41.7513 140.518 41.5772C140.518 41.3838 140.421 41.0938 140.325 40.823C140.325 40.533 140.228 40.1655 140.228 39.6821C140.228 39.1986 140.228 38.5411 140.228 37.8836V32.1788C140.228 30.4771 139.938 29.3361 139.377 28.5626C138.816 27.9051 137.849 27.615 136.534 27.615H134.542V42.2347H128.932V6.1689H137.482C140.421 6.1689 142.51 6.92309 143.845 8.25743C145.18 9.68846 145.837 11.6803 145.837 14.523V17.3657C145.837 21.0593 144.599 23.4379 142.143 24.6756C143.574 25.2364 144.619 26.2033 145.083 27.5183C145.644 28.8527 145.934 30.4577 145.934 32.3529V37.8643C145.934 38.8118 145.934 39.566 146.031 40.2429C146.127 40.9004 146.224 41.5772 146.514 42.2347H140.712ZM134.542 11.3902V22.3937H136.824C137.868 22.3937 138.719 22.1036 139.3 21.6395C139.861 21.0787 140.151 20.0344 140.151 18.6034V15.1032C140.151 13.7688 139.957 12.8213 139.493 12.2604C139.01 11.6996 138.352 11.4096 137.307 11.4096H134.542V11.3902Z" fill="black"/>
<path fill-rule="evenodd" clip-rule="evenodd" d="M152.491 0H201V48.5003H152.491V0ZM161.311 18.5067V22.6838H155.605V10.636H161.311V12.8213H166.92L161.311 18.5067ZM164.154 18.5067L169.763 12.8019V8.5475H155.624V2.84272H175.469V18.5067H164.154ZM198.157 22.6838H192.548V8.5475H186.842L192.548 2.84272H198.157V22.6838ZM189.704 2.84272L183.999 8.5475V12.8213H190.362V18.526H183.999V22.7031H178.293V2.84272H189.704ZM175.469 25.9132V31.5213H161.311V37.2261L155.605 31.5213V25.9132H175.469ZM161.311 40.0688H175.449V45.7736H155.624V34.3834L161.311 40.0688ZM183.999 25.9132V30.0903L178.293 35.7951V25.9132H183.999ZM189.704 35.7951L199.588 45.7543H191.136L181.175 35.7951L191.136 25.9132H199.588L189.704 35.7951ZM183.999 45.7543H178.293V35.7951L183.999 41.4999V45.7543Z" fill="#E3000B"/>
</svg>
